<?xml version="1.0" encoding="UTF-8"?>
<svg width="1440" height="1024" viewBox="0 0 1440 1024" fill="none" xmlns="http://www.w3.org/2000/svg">
    <g opacity="0.15" filter="url(#filter0_f)">
        <path d="M855.5 671C1014.7 671 1144 541.7 1144 382.5C1144 223.3 1014.7 94 855.5 94C696.3 94 567 223.3 567 382.5C567 541.7 696.3 671 855.5 671Z" fill="#BF8E8A"/>
    </g>
    <g opacity="0.1" filter="url(#filter1_f)">
        <path d="M444.5 930C603.7 930 733 800.7 733 641.5C733 482.3 603.7 353 444.5 353C285.3 353 156 482.3 156 641.5C156 800.7 285.3 930 444.5 930Z" fill="#BF8E8A"/>
    </g>
    <defs>
        <filter id="filter0_f" x="367" y="-106" width="977" height="977" filterUnits="userSpaceOnUse" color-interpolation-filters="sRGB">
            <feFlood flood-opacity="0" result="BackgroundImageFix"/>
            <feBlend mode="normal" in="SourceGraphic" in2="BackgroundImageFix" result="shape"/>
            <feGaussianBlur stdDeviation="100" result="effect1_foregroundBlur"/>
        </filter>
        <filter id="filter1_f" x="-44" y="153" width="977" height="977" filterUnits="userSpaceOnUse" color-interpolation-filters="sRGB">
            <feFlood flood-opacity="0" result="BackgroundImageFix"/>
            <feBlend mode="normal" in="SourceGraphic" in2="BackgroundImageFix" result="shape"/>
            <feGaussianBlur stdDeviation="100" result="effect1_foregroundBlur"/>
        </filter>
    </defs>
</svg>